<svg xmlns="http://www.w3.org/2000/svg" viewBox="0 0 900 520" role="img" aria-labelledby="title desc">
  <title id="title">IA analisando estratégia de campanha</title>
  <desc id="desc">Ilustração de uma estação de trabalho com painéis de dados, mapas e sinais de inteligência artificial.</desc>
  <defs>
    <linearGradient id="bg" x1="0" x2="1" y1="0" y2="1">
      <stop offset="0" stop-color="#0b1726"/>
      <stop offset="0.55" stop-color="#102a43"/>
      <stop offset="1" stop-color="#071018"/>
    </linearGradient>
    <linearGradient id="screen" x1="0" x2="1" y1="0" y2="1">
      <stop offset="0" stop-color="#163a5a"/>
      <stop offset="1" stop-color="#08111d"/>
    </linearGradient>
    <linearGradient id="accent" x1="0" x2="1">
      <stop offset="0" stop-color="#8fd3ff"/>
      <stop offset="1" stop-color="#6ef3c5"/>
    </linearGradient>
    <filter id="glow" x="-30%" y="-30%" width="160%" height="160%">
      <feGaussianBlur stdDeviation="8" result="blur"/>
      <feColorMatrix in="blur" type="matrix" values="0 0 0 0 0.42 0 0 0 0 0.95 0 0 0 0 0.78 0 0 0 .65 0"/>
      <feBlend in="SourceGraphic"/>
    </filter>
  </defs>
  <rect width="900" height="520" rx="38" fill="url(#bg)"/>
  <circle cx="150" cy="88" r="88" fill="#8fd3ff" opacity=".12"/>
  <circle cx="775" cy="120" r="118" fill="#6ef3c5" opacity=".10"/>
  <circle cx="698" cy="442" r="160" fill="#f3c67c" opacity=".08"/>

  <g opacity=".16" stroke="#d8f3ff" stroke-width="1">
    <path d="M70 90h770M70 160h770M70 230h770M70 300h770M70 370h770M70 440h770"/>
    <path d="M120 55v410M230 55v410M340 55v410M450 55v410M560 55v410M670 55v410M780 55v410"/>
  </g>

  <g transform="translate(92 86)">
    <rect x="0" y="0" width="458" height="276" rx="26" fill="url(#screen)" stroke="#8fd3ff" stroke-opacity=".38"/>
    <rect x="26" y="28" width="180" height="26" rx="13" fill="#8fd3ff" opacity=".22"/>
    <rect x="26" y="72" width="130" height="14" rx="7" fill="#d8f3ff" opacity=".28"/>
    <rect x="26" y="96" width="210" height="14" rx="7" fill="#d8f3ff" opacity=".14"/>
    <rect x="26" y="120" width="172" height="14" rx="7" fill="#d8f3ff" opacity=".18"/>

    <g transform="translate(254 42)">
      <rect width="158" height="164" rx="20" fill="#071018" opacity=".62" stroke="#6ef3c5" stroke-opacity=".36"/>
      <path d="M28 124V76M62 124V48M96 124V88M130 124V34" stroke="url(#accent)" stroke-width="12" stroke-linecap="round"/>
      <path d="M28 76 62 48 96 88 130 34" fill="none" stroke="#f3c67c" stroke-width="4" stroke-linecap="round" stroke-linejoin="round"/>
    </g>

    <g transform="translate(32 166)" filter="url(#glow)">
      <path d="M0 66c38-58 72-30 106-64 30 42 78 16 118 64" fill="none" stroke="url(#accent)" stroke-width="8" stroke-linecap="round"/>
      <circle cx="0" cy="66" r="8" fill="#8fd3ff"/>
      <circle cx="106" cy="2" r="8" fill="#6ef3c5"/>
      <circle cx="224" cy="66" r="8" fill="#f3c67c"/>
    </g>
  </g>

  <g transform="translate(548 122)">
    <rect x="0" y="0" width="258" height="274" rx="30" fill="#071018" opacity=".72" stroke="#f3c67c" stroke-opacity=".32"/>
    <circle cx="128" cy="86" r="54" fill="none" stroke="url(#accent)" stroke-width="12" filter="url(#glow)"/>
    <circle cx="128" cy="86" r="22" fill="#8fd3ff" opacity=".85"/>
    <path d="M128 20v-28M128 164v28M62 86H34M222 86h-28M80 38 60 18M176 134l20 20M176 38l20-20M80 134l-20 20" stroke="#6ef3c5" stroke-width="8" stroke-linecap="round" opacity=".82"/>
    <rect x="44" y="182" width="170" height="16" rx="8" fill="#d8f3ff" opacity=".23"/>
    <rect x="44" y="212" width="126" height="16" rx="8" fill="#d8f3ff" opacity=".16"/>
    <rect x="44" y="242" width="148" height="16" rx="8" fill="#d8f3ff" opacity=".18"/>
  </g>

  <g transform="translate(180 392)">
    <rect x="0" y="0" width="540" height="38" rx="19" fill="#d8f3ff" opacity=".12"/>
    <rect x="26" y="13" width="86" height="12" rx="6" fill="#8fd3ff" opacity=".65"/>
    <rect x="136" y="13" width="118" height="12" rx="6" fill="#6ef3c5" opacity=".56"/>
    <rect x="278" y="13" width="80" height="12" rx="6" fill="#f3c67c" opacity=".62"/>
    <rect x="382" y="13" width="132" height="12" rx="6" fill="#8fd3ff" opacity=".32"/>
  </g>
</svg>
